<mxfile host="app.diagrams.net" agent="Mozilla/5.0 (Windows NT 10.0; Win64; x64) AppleWebKit/537.36 (KHTML, like Gecko) Chrome/136.0.0.0 Safari/537.36" version="27.0.6">
  <diagram name="Trang-1" id="cv6icjJXqkcYVCk2MBvI">
    <mxGraphModel dx="780" dy="1606" grid="1" gridSize="10" guides="1" tooltips="1" connect="1" arrows="1" fold="1" page="1" pageScale="1" pageWidth="827" pageHeight="1169" math="0" shadow="0">
      <root>
        <mxCell id="0" />
        <mxCell id="1" parent="0" />
        <object label="Admin" id="rcxc9e9lUHzk6Sx_kzkf-1">
          <mxCell style="shape=umlActor;verticalLabelPosition=bottom;verticalAlign=top;html=1;outlineConnect=0;" parent="1" vertex="1">
            <mxGeometry x="450" y="210" width="30" height="60" as="geometry" />
          </mxCell>
        </object>
        <mxCell id="rcxc9e9lUHzk6Sx_kzkf-2" value="" style="endArrow=none;dashed=1;html=1;rounded=0;entryX=0.5;entryY=0.5;entryDx=0;entryDy=0;entryPerimeter=0;" parent="1" source="rcxc9e9lUHzk6Sx_kzkf-12" target="rcxc9e9lUHzk6Sx_kzkf-1" edge="1">
          <mxGeometry width="50" height="50" relative="1" as="geometry">
            <mxPoint x="470" y="630" as="sourcePoint" />
            <mxPoint x="540" y="380" as="targetPoint" />
          </mxGeometry>
        </mxCell>
        <mxCell id="rcxc9e9lUHzk6Sx_kzkf-3" value="Giao diện&amp;nbsp;" style="shape=umlBoundary;whiteSpace=wrap;html=1;" parent="1" vertex="1">
          <mxGeometry x="610" y="190" width="100" height="80" as="geometry" />
        </mxCell>
        <mxCell id="rcxc9e9lUHzk6Sx_kzkf-4" value="" style="endArrow=none;dashed=1;html=1;rounded=0;entryX=0.572;entryY=1.003;entryDx=0;entryDy=0;entryPerimeter=0;" parent="1" source="rcxc9e9lUHzk6Sx_kzkf-14" target="rcxc9e9lUHzk6Sx_kzkf-3" edge="1">
          <mxGeometry width="50" height="50" relative="1" as="geometry">
            <mxPoint x="621" y="630" as="sourcePoint" />
            <mxPoint x="670" y="370" as="targetPoint" />
          </mxGeometry>
        </mxCell>
        <mxCell id="rcxc9e9lUHzk6Sx_kzkf-5" value="UserController" style="ellipse;shape=umlControl;whiteSpace=wrap;html=1;" parent="1" vertex="1">
          <mxGeometry x="860" y="190" width="70" height="80" as="geometry" />
        </mxCell>
        <mxCell id="rcxc9e9lUHzk6Sx_kzkf-6" value="" style="endArrow=none;dashed=1;html=1;rounded=0;entryX=0.497;entryY=1.013;entryDx=0;entryDy=0;entryPerimeter=0;" parent="1" source="rcxc9e9lUHzk6Sx_kzkf-17" target="rcxc9e9lUHzk6Sx_kzkf-5" edge="1">
          <mxGeometry width="50" height="50" relative="1" as="geometry">
            <mxPoint x="895" y="640" as="sourcePoint" />
            <mxPoint x="800" y="370" as="targetPoint" />
          </mxGeometry>
        </mxCell>
        <mxCell id="rcxc9e9lUHzk6Sx_kzkf-7" value="UserService" style="ellipse;shape=umlEntity;whiteSpace=wrap;html=1;" parent="1" vertex="1">
          <mxGeometry x="1070" y="190" width="80" height="80" as="geometry" />
        </mxCell>
        <mxCell id="rcxc9e9lUHzk6Sx_kzkf-8" value="Database" style="shape=cylinder3;whiteSpace=wrap;html=1;boundedLbl=1;backgroundOutline=1;size=15;" parent="1" vertex="1">
          <mxGeometry x="1290" y="190" width="60" height="80" as="geometry" />
        </mxCell>
        <mxCell id="rcxc9e9lUHzk6Sx_kzkf-9" value="" style="endArrow=none;dashed=1;html=1;rounded=0;entryX=0.5;entryY=1;entryDx=0;entryDy=0;" parent="1" source="rcxc9e9lUHzk6Sx_kzkf-20" target="rcxc9e9lUHzk6Sx_kzkf-7" edge="1">
          <mxGeometry width="50" height="50" relative="1" as="geometry">
            <mxPoint x="1110" y="680" as="sourcePoint" />
            <mxPoint x="890" y="380" as="targetPoint" />
          </mxGeometry>
        </mxCell>
        <mxCell id="rcxc9e9lUHzk6Sx_kzkf-10" value="" style="endArrow=none;dashed=1;html=1;rounded=0;entryX=0.5;entryY=1;entryDx=0;entryDy=0;entryPerimeter=0;" parent="1" source="rcxc9e9lUHzk6Sx_kzkf-23" target="rcxc9e9lUHzk6Sx_kzkf-8" edge="1">
          <mxGeometry width="50" height="50" relative="1" as="geometry">
            <mxPoint x="1320" y="670" as="sourcePoint" />
            <mxPoint x="960" y="390" as="targetPoint" />
          </mxGeometry>
        </mxCell>
        <mxCell id="rcxc9e9lUHzk6Sx_kzkf-11" value="" style="endArrow=none;dashed=1;html=1;rounded=0;entryX=0.5;entryY=0.5;entryDx=0;entryDy=0;entryPerimeter=0;" parent="1" target="rcxc9e9lUHzk6Sx_kzkf-12" edge="1">
          <mxGeometry width="50" height="50" relative="1" as="geometry">
            <mxPoint x="465" y="1150" as="sourcePoint" />
            <mxPoint x="465" y="240" as="targetPoint" />
          </mxGeometry>
        </mxCell>
        <mxCell id="rcxc9e9lUHzk6Sx_kzkf-12" value="" style="html=1;points=[[0,0,0,0,5],[0,1,0,0,-5],[1,0,0,0,5],[1,1,0,0,-5]];perimeter=orthogonalPerimeter;outlineConnect=0;targetShapes=umlLifeline;portConstraint=eastwest;newEdgeStyle={&quot;curved&quot;:0,&quot;rounded&quot;:0};" parent="1" vertex="1">
          <mxGeometry x="460" y="320" width="10" height="400" as="geometry" />
        </mxCell>
        <mxCell id="rcxc9e9lUHzk6Sx_kzkf-13" value="" style="endArrow=none;dashed=1;html=1;rounded=0;entryX=0.572;entryY=1.003;entryDx=0;entryDy=0;entryPerimeter=0;" parent="1" target="rcxc9e9lUHzk6Sx_kzkf-14" edge="1">
          <mxGeometry width="50" height="50" relative="1" as="geometry">
            <mxPoint x="669.72" y="500" as="sourcePoint" />
            <mxPoint x="621" y="270" as="targetPoint" />
            <Array as="points">
              <mxPoint x="670" y="1150" />
            </Array>
          </mxGeometry>
        </mxCell>
        <mxCell id="rcxc9e9lUHzk6Sx_kzkf-14" value="" style="html=1;points=[[0,0,0,0,5],[0,1,0,0,-5],[1,0,0,0,5],[1,1,0,0,-5]];perimeter=orthogonalPerimeter;outlineConnect=0;targetShapes=umlLifeline;portConstraint=eastwest;newEdgeStyle={&quot;curved&quot;:0,&quot;rounded&quot;:0};" parent="1" vertex="1">
          <mxGeometry x="664" y="320" width="10" height="410" as="geometry" />
        </mxCell>
        <mxCell id="rcxc9e9lUHzk6Sx_kzkf-15" value="Mở chức năng &quot;Quản lý người dùng&quot;" style="html=1;verticalAlign=bottom;endArrow=block;curved=0;rounded=0;" parent="1" target="rcxc9e9lUHzk6Sx_kzkf-14" edge="1">
          <mxGeometry width="80" relative="1" as="geometry">
            <mxPoint x="470" y="330" as="sourcePoint" />
            <mxPoint x="550" y="330" as="targetPoint" />
          </mxGeometry>
        </mxCell>
        <mxCell id="rcxc9e9lUHzk6Sx_kzkf-16" value="" style="endArrow=none;dashed=1;html=1;rounded=0;entryX=0.497;entryY=1.013;entryDx=0;entryDy=0;entryPerimeter=0;" parent="1" target="rcxc9e9lUHzk6Sx_kzkf-17" edge="1">
          <mxGeometry width="50" height="50" relative="1" as="geometry">
            <mxPoint x="895" y="1160" as="sourcePoint" />
            <mxPoint x="895" y="271" as="targetPoint" />
          </mxGeometry>
        </mxCell>
        <mxCell id="rcxc9e9lUHzk6Sx_kzkf-17" value="" style="html=1;points=[[0,0,0,0,5],[0,1,0,0,-5],[1,0,0,0,5],[1,1,0,0,-5]];perimeter=orthogonalPerimeter;outlineConnect=0;targetShapes=umlLifeline;portConstraint=eastwest;newEdgeStyle={&quot;curved&quot;:0,&quot;rounded&quot;:0};" parent="1" vertex="1">
          <mxGeometry x="890" y="340" width="10" height="450" as="geometry" />
        </mxCell>
        <mxCell id="rcxc9e9lUHzk6Sx_kzkf-18" value="Yêu cầu danh sách người dùng" style="html=1;verticalAlign=bottom;endArrow=block;curved=0;rounded=0;" parent="1" target="rcxc9e9lUHzk6Sx_kzkf-17" edge="1">
          <mxGeometry width="80" relative="1" as="geometry">
            <mxPoint x="674" y="350" as="sourcePoint" />
            <mxPoint x="754" y="350" as="targetPoint" />
          </mxGeometry>
        </mxCell>
        <mxCell id="rcxc9e9lUHzk6Sx_kzkf-19" value="" style="endArrow=none;dashed=1;html=1;rounded=0;entryX=0.5;entryY=1;entryDx=0;entryDy=0;" parent="1" source="pKXvgeJF0G7MHsCE2nNq-3" target="rcxc9e9lUHzk6Sx_kzkf-20" edge="1">
          <mxGeometry width="50" height="50" relative="1" as="geometry">
            <mxPoint x="1110" y="1000" as="sourcePoint" />
            <mxPoint x="1110" y="270" as="targetPoint" />
          </mxGeometry>
        </mxCell>
        <mxCell id="rcxc9e9lUHzk6Sx_kzkf-20" value="" style="html=1;points=[[0,0,0,0,5],[0,1,0,0,-5],[1,0,0,0,5],[1,1,0,0,-5]];perimeter=orthogonalPerimeter;outlineConnect=0;targetShapes=umlLifeline;portConstraint=eastwest;newEdgeStyle={&quot;curved&quot;:0,&quot;rounded&quot;:0};" parent="1" vertex="1">
          <mxGeometry x="1105" y="360" width="10" height="100" as="geometry" />
        </mxCell>
        <mxCell id="rcxc9e9lUHzk6Sx_kzkf-21" value="Lấy danh sách người dùng" style="html=1;verticalAlign=bottom;endArrow=block;curved=0;rounded=0;" parent="1" target="rcxc9e9lUHzk6Sx_kzkf-20" edge="1">
          <mxGeometry width="80" relative="1" as="geometry">
            <mxPoint x="900" y="370" as="sourcePoint" />
            <mxPoint x="980" y="370" as="targetPoint" />
          </mxGeometry>
        </mxCell>
        <mxCell id="rcxc9e9lUHzk6Sx_kzkf-22" value="" style="endArrow=none;dashed=1;html=1;rounded=0;entryX=0.5;entryY=1;entryDx=0;entryDy=0;entryPerimeter=0;" parent="1" target="rcxc9e9lUHzk6Sx_kzkf-23" edge="1">
          <mxGeometry width="50" height="50" relative="1" as="geometry">
            <mxPoint x="1320" y="670" as="sourcePoint" />
            <mxPoint x="1320" y="270" as="targetPoint" />
          </mxGeometry>
        </mxCell>
        <mxCell id="rcxc9e9lUHzk6Sx_kzkf-23" value="" style="html=1;points=[[0,0,0,0,5],[0,1,0,0,-5],[1,0,0,0,5],[1,1,0,0,-5]];perimeter=orthogonalPerimeter;outlineConnect=0;targetShapes=umlLifeline;portConstraint=eastwest;newEdgeStyle={&quot;curved&quot;:0,&quot;rounded&quot;:0};" parent="1" vertex="1">
          <mxGeometry x="1315" y="380" width="10" height="50" as="geometry" />
        </mxCell>
        <mxCell id="rcxc9e9lUHzk6Sx_kzkf-24" value="SELECT * FROM Users" style="html=1;verticalAlign=bottom;endArrow=block;curved=0;rounded=0;" parent="1" target="rcxc9e9lUHzk6Sx_kzkf-23" edge="1">
          <mxGeometry width="80" relative="1" as="geometry">
            <mxPoint x="1115" y="390" as="sourcePoint" />
            <mxPoint x="1195" y="390" as="targetPoint" />
          </mxGeometry>
        </mxCell>
        <mxCell id="rcxc9e9lUHzk6Sx_kzkf-25" value="Danh sách người dùng" style="html=1;verticalAlign=bottom;endArrow=open;dashed=1;endSize=8;curved=0;rounded=0;" parent="1" target="rcxc9e9lUHzk6Sx_kzkf-20" edge="1">
          <mxGeometry relative="1" as="geometry">
            <mxPoint x="1315" y="419.5" as="sourcePoint" />
            <mxPoint x="1235" y="419.5" as="targetPoint" />
          </mxGeometry>
        </mxCell>
        <mxCell id="rcxc9e9lUHzk6Sx_kzkf-26" value="Danh sách người dùng" style="html=1;verticalAlign=bottom;endArrow=open;dashed=1;endSize=8;curved=0;rounded=0;" parent="1" target="rcxc9e9lUHzk6Sx_kzkf-17" edge="1">
          <mxGeometry relative="1" as="geometry">
            <mxPoint x="1105" y="440" as="sourcePoint" />
            <mxPoint x="1025" y="440" as="targetPoint" />
          </mxGeometry>
        </mxCell>
        <mxCell id="rcxc9e9lUHzk6Sx_kzkf-27" value="Hiển thị danh sách người dùng" style="html=1;verticalAlign=bottom;endArrow=open;dashed=1;endSize=8;curved=0;rounded=0;" parent="1" target="rcxc9e9lUHzk6Sx_kzkf-14" edge="1">
          <mxGeometry relative="1" as="geometry">
            <mxPoint x="890" y="460" as="sourcePoint" />
            <mxPoint x="810" y="460" as="targetPoint" />
          </mxGeometry>
        </mxCell>
        <mxCell id="rcxc9e9lUHzk6Sx_kzkf-28" value="&lt;font style=&quot;vertical-align: inherit;&quot;&gt;&lt;font style=&quot;vertical-align: inherit;&quot;&gt;Chọn1 người dùng trong danh sách&lt;/font&gt;&lt;/font&gt;" style="html=1;verticalAlign=bottom;endArrow=block;curved=0;rounded=0;" parent="1" edge="1">
          <mxGeometry width="80" relative="1" as="geometry">
            <mxPoint x="470" y="499.52" as="sourcePoint" />
            <mxPoint x="664" y="499.52" as="targetPoint" />
          </mxGeometry>
        </mxCell>
        <mxCell id="rcxc9e9lUHzk6Sx_kzkf-29" value="Yêu cầu các chức năng&lt;div&gt;&amp;nbsp;thao tác với người dùng&lt;/div&gt;" style="html=1;verticalAlign=bottom;endArrow=block;curved=0;rounded=0;" parent="1" target="rcxc9e9lUHzk6Sx_kzkf-17" edge="1">
          <mxGeometry width="80" relative="1" as="geometry">
            <mxPoint x="674" y="530" as="sourcePoint" />
            <mxPoint x="754" y="530" as="targetPoint" />
          </mxGeometry>
        </mxCell>
        <mxCell id="rcxc9e9lUHzk6Sx_kzkf-30" value="&lt;font style=&quot;vertical-align: inherit;&quot;&gt;&lt;font style=&quot;vertical-align: inherit;&quot;&gt;Hiển thị các chức năng&amp;nbsp;&lt;/font&gt;&lt;/font&gt;&lt;div&gt;&lt;font style=&quot;vertical-align: inherit;&quot;&gt;&lt;font style=&quot;vertical-align: inherit;&quot;&gt;thao tác với người dùng&lt;/font&gt;&lt;/font&gt;&lt;/div&gt;" style="html=1;verticalAlign=bottom;endArrow=open;dashed=1;endSize=8;curved=0;rounded=0;" parent="1" edge="1">
          <mxGeometry relative="1" as="geometry">
            <mxPoint x="890" y="574" as="sourcePoint" />
            <mxPoint x="674" y="574" as="targetPoint" />
          </mxGeometry>
        </mxCell>
        <mxCell id="rcxc9e9lUHzk6Sx_kzkf-31" value="Chọn chức năng&lt;div&gt;&amp;nbsp;&quot;Chỉnh sửa quyền người dùng&quot;&lt;/div&gt;" style="html=1;verticalAlign=bottom;endArrow=block;curved=0;rounded=0;" parent="1" target="rcxc9e9lUHzk6Sx_kzkf-14" edge="1">
          <mxGeometry width="80" relative="1" as="geometry">
            <mxPoint x="470" y="610" as="sourcePoint" />
            <mxPoint x="550" y="610" as="targetPoint" />
          </mxGeometry>
        </mxCell>
        <mxCell id="rcxc9e9lUHzk6Sx_kzkf-32" value="Yêu cầu danh sách&amp;nbsp;&lt;div&gt;các quyền của người dùng&lt;/div&gt;" style="html=1;verticalAlign=bottom;endArrow=block;curved=0;rounded=0;" parent="1" target="rcxc9e9lUHzk6Sx_kzkf-17" edge="1">
          <mxGeometry width="80" relative="1" as="geometry">
            <mxPoint x="674" y="640" as="sourcePoint" />
            <mxPoint x="754" y="640" as="targetPoint" />
          </mxGeometry>
        </mxCell>
        <mxCell id="rcxc9e9lUHzk6Sx_kzkf-36" value="" style="endArrow=none;dashed=1;html=1;rounded=0;entryX=0.5;entryY=1;entryDx=0;entryDy=0;entryPerimeter=0;" parent="1" source="pKXvgeJF0G7MHsCE2nNq-5" edge="1">
          <mxGeometry width="50" height="50" relative="1" as="geometry">
            <mxPoint x="1319.55" y="990" as="sourcePoint" />
            <mxPoint x="1319.55" y="390" as="targetPoint" />
          </mxGeometry>
        </mxCell>
        <mxCell id="rcxc9e9lUHzk6Sx_kzkf-57" value="Hiển thị danh sách các quyền" style="html=1;verticalAlign=bottom;endArrow=open;dashed=1;endSize=8;curved=0;rounded=0;" parent="1" target="rcxc9e9lUHzk6Sx_kzkf-14" edge="1">
          <mxGeometry relative="1" as="geometry">
            <mxPoint x="890" y="670" as="sourcePoint" />
            <mxPoint x="820" y="670" as="targetPoint" />
          </mxGeometry>
        </mxCell>
        <mxCell id="rcxc9e9lUHzk6Sx_kzkf-60" value="Chọn 1 trong các quyền" style="html=1;verticalAlign=bottom;endArrow=block;curved=0;rounded=0;" parent="1" target="rcxc9e9lUHzk6Sx_kzkf-14" edge="1">
          <mxGeometry width="80" relative="1" as="geometry">
            <mxPoint x="470" y="690" as="sourcePoint" />
            <mxPoint x="550" y="690" as="targetPoint" />
          </mxGeometry>
        </mxCell>
        <mxCell id="pKXvgeJF0G7MHsCE2nNq-1" value="Yêu cầu thay đổi quyền&lt;div&gt;(userId,newRole)&lt;/div&gt;" style="html=1;verticalAlign=bottom;endArrow=block;curved=0;rounded=0;fontSize=12;startSize=8;endSize=8;" parent="1" edge="1">
          <mxGeometry width="80" relative="1" as="geometry">
            <mxPoint x="675" y="720" as="sourcePoint" />
            <mxPoint x="891.0000000000002" y="720" as="targetPoint" />
          </mxGeometry>
        </mxCell>
        <mxCell id="pKXvgeJF0G7MHsCE2nNq-2" value="" style="endArrow=none;dashed=1;html=1;rounded=0;entryX=0.5;entryY=1;entryDx=0;entryDy=0;" parent="1" target="pKXvgeJF0G7MHsCE2nNq-3" edge="1">
          <mxGeometry width="50" height="50" relative="1" as="geometry">
            <mxPoint x="1110" y="1160" as="sourcePoint" />
            <mxPoint x="1110" y="460" as="targetPoint" />
          </mxGeometry>
        </mxCell>
        <mxCell id="pKXvgeJF0G7MHsCE2nNq-3" value="" style="html=1;points=[[0,0,0,0,5],[0,1,0,0,-5],[1,0,0,0,5],[1,1,0,0,-5]];perimeter=orthogonalPerimeter;outlineConnect=0;targetShapes=umlLifeline;portConstraint=eastwest;newEdgeStyle={&quot;curved&quot;:0,&quot;rounded&quot;:0};" parent="1" vertex="1">
          <mxGeometry x="1105" y="730" width="10" height="70" as="geometry" />
        </mxCell>
        <mxCell id="pKXvgeJF0G7MHsCE2nNq-4" value="Cập nhật quyền&lt;div&gt;(userId,newRole)&lt;/div&gt;" style="html=1;verticalAlign=bottom;endArrow=block;curved=0;rounded=0;fontSize=12;startSize=8;endSize=8;" parent="1" target="pKXvgeJF0G7MHsCE2nNq-3" edge="1">
          <mxGeometry width="80" relative="1" as="geometry">
            <mxPoint x="900" y="749.29" as="sourcePoint" />
            <mxPoint x="980" y="749.29" as="targetPoint" />
          </mxGeometry>
        </mxCell>
        <mxCell id="pKXvgeJF0G7MHsCE2nNq-6" value="UPDATE Users&amp;nbsp;&lt;br&gt;SET role = newRole&lt;br&gt;WHERE id = userId" style="html=1;verticalAlign=bottom;endArrow=block;curved=0;rounded=0;fontSize=12;startSize=8;endSize=8;" parent="1" target="pKXvgeJF0G7MHsCE2nNq-5" edge="1">
          <mxGeometry width="80" relative="1" as="geometry">
            <mxPoint x="1115" y="780" as="sourcePoint" />
            <mxPoint x="1195" y="780" as="targetPoint" />
          </mxGeometry>
        </mxCell>
        <mxCell id="pKXvgeJF0G7MHsCE2nNq-7" value="" style="endArrow=none;dashed=1;html=1;rounded=0;entryX=0.5;entryY=1;entryDx=0;entryDy=0;entryPerimeter=0;" parent="1" target="pKXvgeJF0G7MHsCE2nNq-5" edge="1">
          <mxGeometry width="50" height="50" relative="1" as="geometry">
            <mxPoint x="1320" y="1160" as="sourcePoint" />
            <mxPoint x="1319.55" y="390" as="targetPoint" />
          </mxGeometry>
        </mxCell>
        <mxCell id="pKXvgeJF0G7MHsCE2nNq-5" value="" style="html=1;points=[[0,0,0,0,5],[0,1,0,0,-5],[1,0,0,0,5],[1,1,0,0,-5]];perimeter=orthogonalPerimeter;outlineConnect=0;targetShapes=umlLifeline;portConstraint=eastwest;newEdgeStyle={&quot;curved&quot;:0,&quot;rounded&quot;:0};" parent="1" vertex="1">
          <mxGeometry x="1315" y="770" width="10" height="30" as="geometry" />
        </mxCell>
        <mxCell id="pKXvgeJF0G7MHsCE2nNq-8" value="alt" style="shape=umlFrame;whiteSpace=wrap;html=1;pointerEvents=0;" parent="1" vertex="1">
          <mxGeometry x="490" y="810" width="910" height="310" as="geometry" />
        </mxCell>
        <mxCell id="pKXvgeJF0G7MHsCE2nNq-9" value="[ Cập nhật thành công ]" style="text;html=1;align=center;verticalAlign=middle;resizable=0;points=[];autosize=1;strokeColor=none;fillColor=none;fontSize=16;" parent="1" vertex="1">
          <mxGeometry x="484" y="850" width="190" height="30" as="geometry" />
        </mxCell>
        <mxCell id="pKXvgeJF0G7MHsCE2nNq-10" value="" style="html=1;points=[[0,0,0,0,5],[0,1,0,0,-5],[1,0,0,0,5],[1,1,0,0,-5]];perimeter=orthogonalPerimeter;outlineConnect=0;targetShapes=umlLifeline;portConstraint=eastwest;newEdgeStyle={&quot;curved&quot;:0,&quot;rounded&quot;:0};" parent="1" vertex="1">
          <mxGeometry x="1315" y="830" width="10" height="30" as="geometry" />
        </mxCell>
        <mxCell id="pKXvgeJF0G7MHsCE2nNq-11" value="" style="html=1;points=[[0,0,0,0,5],[0,1,0,0,-5],[1,0,0,0,5],[1,1,0,0,-5]];perimeter=orthogonalPerimeter;outlineConnect=0;targetShapes=umlLifeline;portConstraint=eastwest;newEdgeStyle={&quot;curved&quot;:0,&quot;rounded&quot;:0};" parent="1" vertex="1">
          <mxGeometry x="1105" y="830" width="10" height="60" as="geometry" />
        </mxCell>
        <mxCell id="pKXvgeJF0G7MHsCE2nNq-12" value="" style="html=1;points=[[0,0,0,0,5],[0,1,0,0,-5],[1,0,0,0,5],[1,1,0,0,-5]];perimeter=orthogonalPerimeter;outlineConnect=0;targetShapes=umlLifeline;portConstraint=eastwest;newEdgeStyle={&quot;curved&quot;:0,&quot;rounded&quot;:0};" parent="1" vertex="1">
          <mxGeometry x="890" y="860" width="10" height="60" as="geometry" />
        </mxCell>
        <mxCell id="pKXvgeJF0G7MHsCE2nNq-13" value="" style="html=1;points=[[0,0,0,0,5],[0,1,0,0,-5],[1,0,0,0,5],[1,1,0,0,-5]];perimeter=orthogonalPerimeter;outlineConnect=0;targetShapes=umlLifeline;portConstraint=eastwest;newEdgeStyle={&quot;curved&quot;:0,&quot;rounded&quot;:0};" parent="1" vertex="1">
          <mxGeometry x="664" y="890" width="10" height="30" as="geometry" />
        </mxCell>
        <mxCell id="pKXvgeJF0G7MHsCE2nNq-14" value="OK" style="html=1;verticalAlign=bottom;endArrow=open;dashed=1;endSize=8;curved=0;rounded=0;fontSize=12;" parent="1" target="pKXvgeJF0G7MHsCE2nNq-11" edge="1">
          <mxGeometry relative="1" as="geometry">
            <mxPoint x="1315" y="850" as="sourcePoint" />
            <mxPoint x="1235" y="850" as="targetPoint" />
          </mxGeometry>
        </mxCell>
        <mxCell id="pKXvgeJF0G7MHsCE2nNq-15" value="Cập nhật quyền thành công" style="html=1;verticalAlign=bottom;endArrow=open;dashed=1;endSize=8;curved=0;rounded=0;fontSize=12;" parent="1" target="pKXvgeJF0G7MHsCE2nNq-12" edge="1">
          <mxGeometry relative="1" as="geometry">
            <mxPoint x="1105" y="880" as="sourcePoint" />
            <mxPoint x="1025" y="880" as="targetPoint" />
          </mxGeometry>
        </mxCell>
        <mxCell id="pKXvgeJF0G7MHsCE2nNq-16" value="Hiển thị thông báo&amp;nbsp;&lt;br&gt;cập nhật quyền thành công" style="html=1;verticalAlign=bottom;endArrow=open;dashed=1;endSize=8;curved=0;rounded=0;fontSize=12;" parent="1" target="pKXvgeJF0G7MHsCE2nNq-13" edge="1">
          <mxGeometry relative="1" as="geometry">
            <mxPoint x="890" y="909.29" as="sourcePoint" />
            <mxPoint x="810" y="909.29" as="targetPoint" />
          </mxGeometry>
        </mxCell>
        <mxCell id="pKXvgeJF0G7MHsCE2nNq-18" value="" style="endArrow=none;dashed=1;html=1;dashPattern=1 3;strokeWidth=2;rounded=0;fontSize=12;startSize=8;endSize=8;curved=1;exitX=0.002;exitY=0.752;exitDx=0;exitDy=0;exitPerimeter=0;entryX=1;entryY=0.743;entryDx=0;entryDy=0;entryPerimeter=0;" parent="1" edge="1">
          <mxGeometry width="50" height="50" relative="1" as="geometry">
            <mxPoint x="491.82000000000005" y="963.7899999999998" as="sourcePoint" />
            <mxPoint x="1400" y="960.9999999999999" as="targetPoint" />
          </mxGeometry>
        </mxCell>
        <mxCell id="pKXvgeJF0G7MHsCE2nNq-19" value="[ Cập nhật thất bại ]" style="text;html=1;align=center;verticalAlign=middle;resizable=0;points=[];autosize=1;strokeColor=none;fillColor=none;fontSize=16;" parent="1" vertex="1">
          <mxGeometry x="490" y="961" width="160" height="30" as="geometry" />
        </mxCell>
        <mxCell id="pKXvgeJF0G7MHsCE2nNq-20" value="" style="html=1;points=[[0,0,0,0,5],[0,1,0,0,-5],[1,0,0,0,5],[1,1,0,0,-5]];perimeter=orthogonalPerimeter;outlineConnect=0;targetShapes=umlLifeline;portConstraint=eastwest;newEdgeStyle={&quot;curved&quot;:0,&quot;rounded&quot;:0};" parent="1" vertex="1">
          <mxGeometry x="1315" y="980" width="10" height="40" as="geometry" />
        </mxCell>
        <mxCell id="pKXvgeJF0G7MHsCE2nNq-21" value="" style="html=1;points=[[0,0,0,0,5],[0,1,0,0,-5],[1,0,0,0,5],[1,1,0,0,-5]];perimeter=orthogonalPerimeter;outlineConnect=0;targetShapes=umlLifeline;portConstraint=eastwest;newEdgeStyle={&quot;curved&quot;:0,&quot;rounded&quot;:0};" parent="1" vertex="1">
          <mxGeometry x="1105" y="990" width="10" height="60" as="geometry" />
        </mxCell>
        <mxCell id="pKXvgeJF0G7MHsCE2nNq-22" value="" style="html=1;points=[[0,0,0,0,5],[0,1,0,0,-5],[1,0,0,0,5],[1,1,0,0,-5]];perimeter=orthogonalPerimeter;outlineConnect=0;targetShapes=umlLifeline;portConstraint=eastwest;newEdgeStyle={&quot;curved&quot;:0,&quot;rounded&quot;:0};" parent="1" vertex="1">
          <mxGeometry x="890" y="1000" width="10" height="60" as="geometry" />
        </mxCell>
        <mxCell id="pKXvgeJF0G7MHsCE2nNq-23" value="" style="html=1;points=[[0,0,0,0,5],[0,1,0,0,-5],[1,0,0,0,5],[1,1,0,0,-5]];perimeter=orthogonalPerimeter;outlineConnect=0;targetShapes=umlLifeline;portConstraint=eastwest;newEdgeStyle={&quot;curved&quot;:0,&quot;rounded&quot;:0};" parent="1" vertex="1">
          <mxGeometry x="664" y="1020" width="10" height="40" as="geometry" />
        </mxCell>
        <mxCell id="pKXvgeJF0G7MHsCE2nNq-24" value="FAIL" style="html=1;verticalAlign=bottom;endArrow=open;dashed=1;endSize=8;curved=0;rounded=0;fontSize=12;" parent="1" target="pKXvgeJF0G7MHsCE2nNq-21" edge="1">
          <mxGeometry relative="1" as="geometry">
            <mxPoint x="1315" y="1000" as="sourcePoint" />
            <mxPoint x="1235" y="1000" as="targetPoint" />
          </mxGeometry>
        </mxCell>
        <mxCell id="pKXvgeJF0G7MHsCE2nNq-26" value="Cập nhật quyền thất bại" style="html=1;verticalAlign=bottom;endArrow=open;dashed=1;endSize=8;curved=0;rounded=0;fontSize=12;" parent="1" target="pKXvgeJF0G7MHsCE2nNq-22" edge="1">
          <mxGeometry relative="1" as="geometry">
            <mxPoint x="1105" y="1019.33" as="sourcePoint" />
            <mxPoint x="1025" y="1019.33" as="targetPoint" />
          </mxGeometry>
        </mxCell>
        <mxCell id="pKXvgeJF0G7MHsCE2nNq-27" value="Hiển thị thông báo&lt;br&gt;cập nhật quyền thất bại" style="html=1;verticalAlign=bottom;endArrow=open;dashed=1;endSize=8;curved=0;rounded=0;fontSize=12;" parent="1" target="pKXvgeJF0G7MHsCE2nNq-23" edge="1">
          <mxGeometry relative="1" as="geometry">
            <mxPoint x="890" y="1040" as="sourcePoint" />
            <mxPoint x="810" y="1040" as="targetPoint" />
          </mxGeometry>
        </mxCell>
        <mxCell id="icudj5WBJf9qn5VXjyxm-1" value="&lt;font style=&quot;vertical-align: inherit;&quot;&gt;&lt;font style=&quot;vertical-align: inherit;&quot;&gt;Biểu đồ trình tự Admin chỉnh sửa quyền người dùng&lt;/font&gt;&lt;/font&gt;" style="text;html=1;align=center;verticalAlign=middle;resizable=0;points=[];autosize=1;strokeColor=none;fillColor=none;fontSize=25;" vertex="1" parent="1">
          <mxGeometry x="595" y="95" width="600" height="40" as="geometry" />
        </mxCell>
      </root>
    </mxGraphModel>
  </diagram>
</mxfile>
